<svg width="24" height="24" viewBox="0 0 24 24" fill="none" xmlns="http://www.w3.org/2000/svg">
<path d="M8.87199 18.3707C8.77128 18.3673 8.67232 18.3434 8.58118 18.3004C8.49005 18.2574 8.40865 18.1963 8.34199 18.1207L3.34199 13.1207C3.24665 13.0589 3.16661 12.9762 3.1079 12.879C3.04919 12.7817 3.01334 12.6723 3.00307 12.5592C2.9928 12.446 3.00837 12.332 3.04861 12.2258C3.08884 12.1195 3.15269 12.0238 3.23533 11.9458C3.31798 11.8679 3.41725 11.8097 3.52567 11.7757C3.63408 11.7417 3.7488 11.7328 3.86116 11.7497C3.97352 11.7665 4.08059 11.8087 4.17428 11.8729C4.26797 11.9372 4.34583 12.0219 4.40199 12.1207L8.87199 16.5607L19.342 6.1207C19.4829 6.02931 19.6505 5.98788 19.8178 6.00307C19.9851 6.01826 20.1425 6.08918 20.2647 6.20446C20.3869 6.31974 20.4668 6.4727 20.4917 6.63884C20.5166 6.80497 20.485 6.97466 20.402 7.1207L9.40199 18.1207C9.33532 18.1963 9.25392 18.2574 9.16279 18.3004C9.07165 18.3434 8.97269 18.3673 8.87199 18.3707Z" fill="black"/>
</svg>
